{"accessors" : [{"bufferView" : 0, "byteOffset" : 0, "componentType" : 5123, "count" : 6828, "type" : "SCALAR", "max" : [4719], "min" : [0]}, {"bufferView" : 1, "byteOffset" : 0, "componentType" : 5126, "count" : 4720, "type" : "VEC3", "max" : [39.2990798950195, 54.7427597045898, 19.7730178833008], "min" : [-44.3228378295898, -64.999382019043, -21.2515640258789]}, {"bufferView" : 1, "byteOffset" : 12, "componentType" : 5126, "count" : 4720, "type" : "VEC3", "max" : [0.991025447845459, 0.998045980930328, 0.999921500682831], "min" : [-0.995069622993469, -0.999999225139618, -0.996334612369537]}, {"bufferView" : 1, "byteOffset" : 24, "componentType" : 5126, "count" : 4720, "type" : "VEC2", "max" : [17.2023983001709, 29.2687206268311], "min" : [-22.0114612579346, -33.2749786376953]}], "asset" : {"generator" : "Aspose.3D 20.2.1", "version" : "2.0"}, "buffers" : [{"uri" : "buffer.bin", "byteLength" : 164704}], "bufferViews" : [{"buffer" : 0, "byteOffset" : 0, "byteLength" : 13656, "target" : 34963}, {"buffer" : 0, "byteOffset" : 13660, "byteLength" : 151040, "byteStride" : 32, "target" : 34962}], "meshes" : [{"primitives" : [{"attributes" : {"POSITION" : 1, "NORMAL" : 2, "TEXCOORD_0" : 3}, "indices" : 0, "mode" : 4}]}], "nodes" : [{"matrix" : [1, 0, 0, 0, 0, 2.22044604925031E-16, -1, 0, 0, 1, 2.22044604925031E-16, 0, 0, 8.67842769622803, 0, 1], "mesh" : 0, "name" : "Cylinder001"}], "scene" : 0, "scenes" : [{"nodes" : [0]}]}